<svg width="315" height="48" viewBox="0 0 315 48" fill="none" xmlns="http://www.w3.org/2000/svg">
<g clip-path="url(#clip0_7_12)">
<path d="M24 44C35.046 44 44 35.046 44 24C44 12.954 35.046 4 24 4C12.954 4 4 12.954 4 24C4 35.046 12.954 44 24 44Z" stroke="white" stroke-width="4" stroke-linejoin="round"/>
<path d="M24 30C27.3137 30 30 27.3137 30 24C30 20.6863 27.3137 18 24 18C20.6863 18 18 20.6863 18 24C18 27.3137 20.6863 30 24 30Z" stroke="white" stroke-width="4" stroke-linejoin="round"/>
<path d="M30 24H44M4 24H18" stroke="white" stroke-width="4" stroke-linecap="round" stroke-linejoin="round"/>
<path d="M24 26C25.1046 26 26 25.1046 26 24C26 22.8954 25.1046 22 24 22C22.8954 22 22 22.8954 22 24C22 25.1046 22.8954 26 24 26Z" fill="white"/>
<path d="M77 24V13.5H80.5V24H77ZM63 38V10H77V13.5H66.5V24H77V27.5H66.5V38H63ZM87.5 38V34.5H98V38H87.5ZM84 34.5V24H87.5V34.5H84ZM98 34.5V24H101.5V34.5H98ZM87.5 24V20.5H98V24H87.5ZM115.5 38V34.5H119V38H115.5ZM112 34.5V31H115.5V34.5H112ZM112 27.5V24H115.5V27.5H112ZM115.5 24V20.5H119V24H115.5ZM105 38V10H108.5V27.5H112V31H108.5V38H105ZM126 38V34.5H140V38H126ZM122.5 34.5V24H126V27.5H136.5V24H140V31H126V34.5H122.5ZM126 24V20.5H136.5V24H126ZM157.5 38V24H161V38H157.5ZM143.5 38V20.5H157.5V24H154V38H150.5V24H147V38H143.5ZM168 38V34.5H178.5V38H168ZM164.5 34.5V24H168V34.5H164.5ZM178.5 34.5V24H182V34.5H178.5ZM168 24V20.5H178.5V24H168ZM196 38V24H199.5V38H196ZM185.5 38V20.5H196V24H189V38H185.5ZM224 38V31H227.5V38H224ZM224 24V13.5H227.5V24H224ZM210 38V10H224V13.5H213.5V24H224V31H220.5V27.5H213.5V38H210ZM234.5 38V34.5H245V38H234.5ZM231 34.5V24H234.5V34.5H231ZM245 34.5V24H248.5V34.5H245ZM234.5 24V20.5H245V24H234.5ZM255.5 38V24H252V20.5H255.5V13.5H259V20.5H266V24H259V34.5H266V38H255.5ZM273 38V34.5H283.5V38H273ZM269.5 34.5V24H273V34.5H269.5ZM283.5 34.5V24H287V34.5H283.5ZM273 24V20.5H283.5V24H273ZM304.5 38V24H308V38H304.5ZM290.5 38V20.5H304.5V24H301V38H297.5V24H294V38H290.5Z" fill="white"/>
</g>
<defs>
<clipPath id="clip0_7_12">
<rect width="315" height="48" fill="white"/>
</clipPath>
</defs>
</svg>
